<?xml version="1.0" encoding="UTF-8"?>
<svg width="117px" height="59px" viewBox="0 0 117 59" version="1.1" xmlns="http://www.w3.org/2000/svg" xmlns:xlink="http://www.w3.org/1999/xlink">
    <!-- Generator: Sketch 47.1 (45422) - http://www.bohemiancoding.com/sketch -->
    <title>TS2</title>
    <desc>Created with Sketch.</desc>
    <defs></defs>
    <g id="Page-1" stroke="none" stroke-width="1" fill="none" fill-rule="evenodd">
        <g id="TS2" fill="#000000">
            <path d="M95.1855469,6.30859375 C95.9765665,6.30859375 96.6752899,6.43749871 97.2817383,6.6953125 C97.8881866,6.95312629 98.3598616,7.32226322 98.6967773,7.80273438 C99.0336931,8.28320553 99.2021484,8.84277024 99.2021484,9.48144531 C99.2021484,10.0791046 99.000002,10.7192349 98.5957031,11.4018555 C98.1914042,12.0844761 97.6230505,12.8242148 96.890625,13.6210938 L93.6210938,17.0927734 L99.7734375,17.0927734 L99.7734375,19 L90.8085938,19 L90.8085938,17.453125 L95.4580078,12.4697266 C95.9267602,11.9892554 96.2988267,11.5117211 96.5742188,11.0371094 C96.8496108,10.5624976 96.9873047,10.1435565 96.9873047,9.78027344 C96.9873047,9.27636467 96.8012714,8.88086081 96.4291992,8.59375 C96.057127,8.30663919 95.5400424,8.16308594 94.8779297,8.16308594 C94.3388645,8.16308594 93.7661163,8.30370953 93.159668,8.58496094 C92.5532196,8.86621234 91.9804714,9.25292723 91.4414062,9.74511719 L90.5976562,8.11035156 C91.2949254,7.53612994 92.0361289,7.09228672 92.8212891,6.77880859 C93.6064492,6.46533046 94.3945273,6.30859375 95.1855469,6.30859375 Z M102.541992,16.7851562 C102.870119,16.7851562 103.141112,16.8964833 103.35498,17.1191406 C103.568849,17.341798 103.675781,17.6201155 103.675781,17.9541016 C103.675781,18.2998064 103.568849,18.5869129 103.35498,18.8154297 C103.141112,19.0439465 102.870119,19.1582031 102.541992,19.1582031 C102.219725,19.1582031 101.950196,19.0454113 101.733398,18.8198242 C101.5166,18.5942372 101.408203,18.3056658 101.408203,17.9541016 C101.408203,17.6201155 101.5166,17.341798 101.733398,17.1191406 C101.950196,16.8964833 102.219725,16.7851562 102.541992,16.7851562 Z M110.733398,6.34375 C112.444344,6.34375 113.762691,6.89306091 114.688477,7.99169922 C115.614262,9.09033752 116.077148,10.6591695 116.077148,12.6982422 C116.077148,14.7373149 115.614262,16.3061469 114.688477,17.4047852 C113.762691,18.5034235 112.444344,19.0527344 110.733398,19.0527344 C109.004874,19.0527344 107.677739,18.5034235 106.751953,17.4047852 C105.826167,16.3061469 105.363281,14.7373149 105.363281,12.6982422 C105.363281,10.6591695 105.826167,9.09033752 106.751953,7.99169922 C107.677739,6.89306091 109.004874,6.34375 110.733398,6.34375 Z M110.733398,8.02246094 C109.661127,8.02246094 108.861331,8.4033165 108.333984,9.16503906 C107.806638,9.92676162 107.542969,11.1044842 107.542969,12.6982422 C107.542969,14.2802813 107.806638,15.4565391 108.333984,16.2270508 C108.861331,16.9975624 109.661127,17.3828125 110.733398,17.3828125 C111.788091,17.3828125 112.579099,16.9990273 113.106445,16.2314453 C113.633792,15.4638633 113.897461,14.2861408 113.897461,12.6982422 C113.897461,11.1044842 113.633792,9.92676162 113.106445,9.16503906 C112.579099,8.4033165 111.788091,8.02246094 110.733398,8.02246094 Z" id="2.0"></path>
            <path d="M0,5.35293026 L40.1138889,5.35293026 L40.1138889,2.39827237 L0,2.39827237 L0,5.35293026 Z M22.0818889,8.90069342 L22.0818889,56.8343118 L25.0421111,56.8343118 L25.0421111,11.8553513 L40.1138889,11.8553513 L40.1138889,8.90069342 L22.0818889,8.90069342 Z M0,8.90069342 L0,11.8553513 L15.001,11.8553513 L15.001,56.8343118 L17.9612222,56.8343118 L17.9612222,8.90069342 L0,8.90069342 Z" id="Fill-2" fill-rule="nonzero"></path>
            <path d="M80.351755,15.3106549 L79.9815328,14.4109049 C78.8965328,11.7691023 75.5948661,3.73112863 63.1084217,3.73112863 C55.2901994,3.73112863 46.9360883,7.06229968 46.9360883,16.4130234 C46.9360883,25.9609313 55.8649772,28.2782339 61.7729772,29.8122339 L62.3539772,29.9620628 C68.5583106,31.5589444 71.3863106,32.2871286 73.6644217,34.2046286 C75.0784217,35.3178655 76.7871994,37.4379839 76.7871994,41.1239313 C76.7871994,46.1521286 73.0748661,52.0241813 62.6129772,52.0241813 C59.7071994,52.0241813 52.6348661,51.3775102 49.7283106,45.3952207 C49.1854217,44.3541813 48.8291994,43.0763655 48.6495328,41.5074313 L48.5499772,40.6402865 L51.5343106,40.648826 L51.6128661,41.3343128 C51.7466439,42.4972339 51.966755,43.289076 52.3735328,44.0684971 C54.5684217,48.584326 60.2648661,49.0695234 62.6129772,49.0695234 C67.7859772,49.0695234 73.8269772,46.9889971 73.8269772,41.1239313 C73.8269772,38.6218655 72.7209772,37.2244971 71.7930883,36.4932076 C69.9933106,34.9786155 67.3683106,34.3032207 61.6158661,32.8235628 L61.0309772,32.6721813 C54.6500883,31.0155234 43.9750883,28.244076 43.9750883,16.4130234 C43.9750883,11.1620234 46.1481994,6.93576021 50.258755,4.19070758 C53.5549772,1.989076 58.1189772,0.776470737 63.1084217,0.776470737 C77.5820883,0.776470737 81.4491994,10.1947339 82.7200883,13.2891286 L83.1828661,14.3651023 C83.1828661,14.3651023 83.3780883,14.880576 83.3780883,15.9697471 L81.065755,15.9697471 L80.6239772,15.9697471 L80.351755,15.3106549 Z M74.9909218,13.6408773 C74.7023662,13.0896931 74.3943662,12.6006142 74.0630329,12.1674299 C71.6752551,8.83237732 67.7350329,6.99561416 62.9672551,6.99561416 C61.8845884,6.99561416 59.0822551,7.11516679 56.447144,8.21675889 C52.828144,9.72902205 50.9148107,12.4903773 50.9148107,16.2011668 C50.9148107,21.8698247 55.5316996,23.9775221 59.5528107,25.1808115 C60.0653662,25.3345221 61.4093662,25.6955089 62.7572551,26.0564957 C65.3674773,26.7567326 68.6162551,27.6285352 69.6864773,28.0112589 C74.8376996,29.6399694 80.9782551,33.2001536 80.9782551,40.912851 C80.9782551,48.1620878 74.6696996,55.5013773 62.6125884,55.5013773 C57.994144,55.5013773 54.1029218,54.4983773 51.0548107,52.5249826 C47.4925884,50.1556668 45.2486996,46.5861668 44.3869218,41.9344826 L44.1839218,40.6574431 L41.1490329,40.6985878 L41.4733662,42.4515089 C42.4875884,47.9377326 45.1615884,52.1554563 49.4284773,54.9944431 C52.9766996,57.2915615 57.413144,58.4560352 62.6125884,58.4560352 C76.6133662,58.4560352 83.9384773,49.6308773 83.9384773,40.912851 C83.9384773,31.4192852 76.6989218,27.1324694 70.6190329,25.2072063 C69.4609218,24.7942063 66.1436996,23.9053247 63.4766996,23.1903378 L63.3273662,23.1507457 C62.103144,22.8215878 60.8703662,22.4908773 60.4036996,22.3511405 C55.6444773,20.926601 53.8750329,19.259851 53.8750329,16.2011668 C53.8750329,15.1577984 54.3136996,9.95104837 62.9672551,9.95104837 C66.7526996,9.95104837 69.8428107,11.353851 71.6814773,13.9211273 C71.9218107,14.2363115 72.1419218,14.584101 72.3495884,14.9769168 L72.8279218,15.9768115 L75.5703662,15.9768115 C75.5703662,15.9768115 75.8519218,15.5381931 74.9909218,13.6408773" id="Fill-5" fill-rule="nonzero"></path>
        </g>
    </g>
</svg>