<?xml version="1.0" encoding="UTF-8"?>
<svg width="115px" height="59px" viewBox="0 0 115 59" version="1.1" xmlns="http://www.w3.org/2000/svg" xmlns:xlink="http://www.w3.org/1999/xlink">
    <!-- Generator: Sketch 41.1 (35376) - http://www.bohemiancoding.com/sketch -->
    <title>Group</title>
    <desc>Created with Sketch.</desc>
    <defs>
        <polygon id="path-1" points="39.8225333 0.544197368 0.419533333 0.544197368 0.419533333 51.7918303 39.8225333 51.7918303"></polygon>
    </defs>
    <g id="Welcome" stroke="none" stroke-width="1" fill="none" fill-rule="evenodd">
        <g id="Group">
            <text id="2.0-copy-2" font-family="CircularStd-Book, Circular Std" font-size="18" font-weight="300" fill="#000000">
                <tspan x="90" y="19">2.0</tspan>
            </text>
            <g id="Page-1-Copy-7">
                <path d="M0.777777778,4.57661447 L39.3368889,4.57661447 L39.3368889,3.17458816 L0.777777778,3.17458816 L0.777777778,4.57661447 Z M22.8588889,9.67700921 L22.8588889,56.0579961 L24.2643333,56.0579961 L24.2643333,11.0782592 L39.3368889,11.0782592 L39.3368889,9.67700921 L22.8588889,9.67700921 Z M0.777777778,9.67700921 L0.777777778,11.0782592 L15.7795556,11.0782592 L15.7795556,56.0579961 L17.1834444,56.0579961 L17.1834444,9.67700921 L0.777777778,9.67700921 Z" id="Fill-1" fill="#000000"></path>
                <path d="M0,5.35293026 L40.1138889,5.35293026 L40.1138889,2.39827237 L0,2.39827237 L0,5.35293026 Z M22.0818889,8.90069342 L22.0818889,56.8343118 L25.0421111,56.8343118 L25.0421111,11.8553513 L40.1138889,11.8553513 L40.1138889,8.90069342 L22.0818889,8.90069342 Z M0,8.90069342 L0,11.8553513 L15.001,11.8553513 L15.001,56.8343118 L17.9612222,56.8343118 L17.9612222,8.90069342 L0,8.90069342 Z" id="Fill-2" fill="#000000"></path>
                <g id="Group-12" transform="translate(40.444444, 0.232351)">
                    <path d="M4.30896667,16.1805947 C4.30896667,27.4123316 14.6191889,30.0882921 20.7807444,31.6882789 L21.3640778,31.8381079 C27.2347444,33.3495947 29.9141889,34.0389632 31.8306333,35.6513711 C32.8938556,36.4897921 34.1600778,38.0789105 34.1600778,40.8915026 C34.1600778,47.3287132 27.7006333,49.6134105 22.1683,49.6134105 C19.6739667,49.6134105 13.6158556,49.0870684 11.2389667,44.1947263 C10.8057444,43.3632921 10.5451889,42.4907132 10.3958556,41.1903842 L8.97796667,41.1865026 C9.14674444,42.65995 9.47885556,43.8554763 9.98363333,44.8243184 C12.6988556,50.4122395 19.4095222,51.0154368 22.1683,51.0154368 C32.0561889,51.0154368 35.5647444,45.5618184 35.5647444,40.8915026 C35.5647444,37.5176342 34.0076333,35.5815026 32.7188556,34.5660816 C30.5753,32.7611474 27.7986333,32.0469368 21.7148556,30.4811079 L21.1323,30.3305026 C15.3658556,28.8337658 5.71363333,26.3278184 5.71363333,16.1805947 C5.71363333,6.25772632 14.4698556,2.72238421 22.6637444,2.72238421 C35.6720778,2.72238421 39.1223,11.1228974 40.2563,13.8834763 L40.6833,14.9214105 L40.6848556,14.9206342 L40.6848556,14.9610026 L42.1556333,14.9610026 C42.1556333,14.8220421 42.0039667,14.3888579 42.0039667,14.3888579 L41.9829667,14.3888579 L41.5559667,13.3517 C40.3340778,10.3753053 36.6147444,1.32035789 22.6637444,1.32035789 C17.8267444,1.32035789 13.4167444,2.48638421 10.2465222,4.60339737 C6.3623,7.19784474 4.30896667,11.2005289 4.30896667,16.1805947" id="Fill-3" fill="#000000"></path>
                    <g id="Group-7" transform="translate(3.111111, 0.000000)">
                        <mask id="mask-2" fill="white">
                            <use xlink:href="#path-1"></use>
                        </mask>
                        <g id="Clip-6"></g>
                        <path d="M36.7962,15.0783039 L36.4259778,14.1785539 C35.3409778,11.5367513 32.0393111,3.49877763 19.5528667,3.49877763 C11.7346444,3.49877763 3.38053333,6.82994868 3.38053333,16.1806724 C3.38053333,25.7285803 12.3094222,28.0458829 18.2174222,29.5798829 L18.7984222,29.7297118 C25.0027556,31.3265934 27.8307556,32.0547776 30.1088667,33.9722776 C31.5228667,35.0855145 33.2316444,37.2056329 33.2316444,40.8915803 C33.2316444,45.9197776 29.5193111,51.7918303 19.0574222,51.7918303 C16.1516444,51.7918303 9.07931111,51.1451592 6.17275556,45.1628697 C5.62986667,44.1218303 5.27364444,42.8440145 5.09397778,41.2750803 L4.99442222,40.4079355 L7.97875556,40.416475 L8.05731111,41.1019618 C8.19108889,42.2648829 8.4112,43.056725 8.81797778,43.8361461 C11.0128667,48.351975 16.7093111,48.8371724 19.0574222,48.8371724 C24.2304222,48.8371724 30.2714222,46.7566461 30.2714222,40.8915803 C30.2714222,38.3895145 29.1654222,36.9921461 28.2375333,36.2608566 C26.4377556,34.7462645 23.8127556,34.0708697 18.0603111,32.5912118 L17.4754222,32.4398303 C11.0945333,30.7831724 0.419533333,28.011725 0.419533333,16.1806724 C0.419533333,10.9296724 2.59264444,6.70340921 6.7032,3.95835658 C9.99942222,1.756725 14.5634222,0.544119737 19.5528667,0.544119737 C34.0265333,0.544119737 37.8936444,9.96238289 39.1645333,13.0567776 L39.6273111,14.1327513 C39.6273111,14.1327513 39.8225333,14.648225 39.8225333,15.7373961 L37.5102,15.7373961 L37.0684222,15.7373961 L36.7962,15.0783039 Z" id="Fill-5" fill="#000000" mask="url(#mask-2)"></path>
                    </g>
                    <path d="M29.9264,25.7106474 C28.8188444,25.31395 25.4985111,24.4227395 22.8307333,23.7077526 C21.5497333,23.3638447 20.2251778,23.0090684 19.7359556,22.8623447 C15.4846222,21.5899632 12.6527333,19.9302 12.6527333,15.9686605 C12.6527333,14.7956474 13.1287333,8.94222632 22.5227333,8.94222632 C26.5664,8.94222632 29.8766222,10.4544895 31.8552889,13.2181737 C32.2364,13.7173447 32.5708444,14.2887132 32.8796222,14.9664368 L32.8842889,14.9633316 L32.8796222,14.9679895 L34.3480667,14.9679895 C34.3480667,14.8422263 34.1582889,14.3865289 34.1582889,14.3865289 C33.8059556,13.6117658 33.4178444,12.9518974 32.9854,12.3859632 C30.7485111,9.26129211 27.0322889,7.5402 22.5227333,7.5402 C21.4867333,7.5402 18.8080667,7.65354211 16.3036222,8.70001579 C12.9965111,10.0818579 11.2480667,12.5963447 11.2480667,15.9686605 C11.2480667,21.0938974 15.3345111,23.0090684 19.3322889,24.2053711 C19.8409556,24.3575289 21.1756222,24.7154105 22.4659556,25.0608711 C25.1088444,25.7704237 28.3980667,26.6523184 29.4768444,27.0389237 C34.8754,28.7460421 41.3115111,32.4979763 41.3115111,40.6803447 C41.3115111,48.3154105 34.7361778,56.0451868 22.1688444,56.0451868 C17.3971778,56.0451868 13.3605111,54.9987132 10.1786222,52.9391474 C6.43517778,50.44795 4.07851111,46.7084368 3.17473333,41.8238579 L3.07673333,41.2105684 L1.63706667,41.2299763 L1.7934,42.0784895 C2.76873333,47.3496737 5.32762222,51.3966079 9.40706667,54.1106079 C12.8277333,56.3246605 17.1210667,57.4472132 22.1688444,57.4472132 C35.6586222,57.4472132 42.7161778,49.0125421 42.7161778,40.6803447 C42.7161778,31.6494632 35.7472889,27.5505158 29.9264,25.7106474" id="Fill-8" fill="#000000"></path>
                    <path d="M34.5464778,13.4085263 C34.2579222,12.8573421 33.9499222,12.3682632 33.6185889,11.9350789 C31.2308111,8.60002632 27.2905889,6.76326316 22.5228111,6.76326316 C21.4401444,6.76326316 18.6378111,6.88281579 16.0027,7.98440789 C12.3837,9.49667105 10.4703667,12.2580263 10.4703667,15.9688158 C10.4703667,21.6374737 15.0872556,23.7451711 19.1083667,24.9484605 C19.6209222,25.1021711 20.9649222,25.4631579 22.3128111,25.8241447 C24.9230333,26.5243816 28.1718111,27.3961842 29.2420333,27.7789079 C34.3932556,29.4076184 40.5338111,32.9678026 40.5338111,40.6805 C40.5338111,47.9297368 34.2252556,55.2690263 22.1681444,55.2690263 C17.5497,55.2690263 13.6584778,54.2660263 10.6103667,52.2926316 C7.04814444,49.9233158 4.80425556,46.3538158 3.94247778,41.7021316 L3.73947778,40.4250921 L0.704588889,40.4662368 L1.02892222,42.2191579 C2.04314444,47.7053816 4.71714444,51.9231053 8.98403333,54.7620921 C12.5322556,57.0592105 16.9687,58.2236842 22.1681444,58.2236842 C36.1689222,58.2236842 43.4940333,49.3985263 43.4940333,40.6805 C43.4940333,31.1869342 36.2544778,26.9001184 30.1745889,24.9748553 C29.0164778,24.5618553 25.6992556,23.6729737 23.0322556,22.9579868 L22.8829222,22.9183947 C21.6587,22.5892368 20.4259222,22.2585263 19.9592556,22.1187895 C15.2000333,20.69425 13.4305889,19.0275 13.4305889,15.9688158 C13.4305889,14.9254474 13.8692556,9.71869737 22.5228111,9.71869737 C26.3082556,9.71869737 29.3983667,11.1215 31.2370333,13.6887763 C31.4773667,14.0039605 31.6974778,14.35175 31.9051444,14.7445658 L32.3834778,15.7444605 L35.1259222,15.7444605 C35.1259222,15.7444605 35.4074778,15.3058421 34.5464778,13.4085263" id="Fill-10" fill="#000000"></path>
                </g>
            </g>
        </g>
    </g>
</svg>